PathFileType	4	(X/Y/Z)	/Users/itak/Documents/Research/Walk-IL/dataset/trc/00342_00011.trc
DataRate	CameraRate	NumFrames	NumMarkers	Units	OrigDataRate	OrigDataStartFrame	OrigNumFrames
100.000000	100.000000	4	55	mm	100.000000	373	746
Frame#	Time	RPSI			LPSI			L3			STRN			T10			C7			CLAV			RBAK			LBAK			LSHO			LUPA			LAEL			LAOL			LWTS			LWPS			LFRA			LIFD			LHPS			LHTS			RSHO			RUPA			RAEL			RAOL			RWTS			RWPS			RFRA			RIFD			RHTS			RHPS			RBHD			LFHD			RFHD			LBHD			LHIP			RHIP			RASI			LASI			LKNE			LTHI			LANK			LTIP			LTOE			LMT1			LMT5			LHEE			RKNE			RTHI			RTIP			RTOE			RMT1			RMT5			RHEE			RANK			*53			*54			
		X1	Y1	Z1	X2	Y2	Z2	X3	Y3	Z3	X4	Y4	Z4	X5	Y5	Z5	X6	Y6	Z6	X7	Y7	Z7	X8	Y8	Z8	X9	Y9	Z9	X10	Y10	Z10	X11	Y11	Z11	X12	Y12	Z12	X13	Y13	Z13	X14	Y14	Z14	X15	Y15	Z15	X16	Y16	Z16	X17	Y17	Z17	X18	Y18	Z18	X19	Y19	Z19	X20	Y20	Z20	X21	Y21	Z21	X22	Y22	Z22	X23	Y23	Z23	X24	Y24	Z24	X25	Y25	Z25	X26	Y26	Z26	X27	Y27	Z27	X28	Y28	Z28	X29	Y29	Z29	X30	Y30	Z30	X31	Y31	Z31	X32	Y32	Z32	X33	Y33	Z33	X34	Y34	Z34	X35	Y35	Z35	X36	Y36	Z36	X37	Y37	Z37	X38	Y38	Z38	X39	Y39	Z39	X40	Y40	Z40	X41	Y41	Z41	X42	Y42	Z42	X43	Y43	Z43	X44	Y44	Z44	X45	Y45	Z45	X46	Y46	Z46	X47	Y47	Z47	X48	Y48	Z48	X49	Y49	Z49	X50	Y50	Z50	X51	Y51	Z51	X52	Y52	Z52	X53	Y53	Z53	X54	Y54	Z54	X55	Y55	Z55	

374	3.73	579.73388671875	966.8690795898438	-489.5142517089844	547.603759765625	957.4453125	-363.9346313476562	566.521484375	1022.847290039062	-428.7737121582031	330.8030395507812	1209.834228515625	-466.2966613769531	568.3048095703125	1143.119995117188	-412.348388671875	517.1795043945312	1388.642456054688	-391.5886535644531	370.2595825195312	1334.430297851562	-441.4898681640625	584.8269653320312	1255.73291015625	-454.635009765625	503.7395935058594	1345.882446289062	-295.0232238769531	408.2539367675781	1359.113891601562	-260.8878479003906	418.5640563964844	1240.895263671875	-192.4273681640625	411.7091369628906	1038.052124023438	-171.2834167480469	481.0627136230469	1026.176147460938	-219.0616912841797	338.9228515625	786.31005859375	-212.6102752685547	371.2137145996094	783.50048828125	-150.6925354003906	402.1596984863281	933.9075317382812	-159.4873657226562	348.3643188476562	625.6759033203125	-201.0899963378906	380.7127685546875	714.0633544921875	-149.0635833740234	335.4699096679688	707.7774658203125	-195.7885589599609	507.9272766113281	1390.390380859375	-561.2330322265625	539.7696533203125	1337.238037109375	-626.31298828125	555.2123413085938	1091.981567382812	-733.7283325195312	557.5144653320312	1056.617797851562	-643.3011474609375	443.4693908691406	872.3394775390625	-807.21533203125	507.2330322265625	873.01220703125	-850.7210693359375	538.8212280273438	1032.232543945312	-769.9131469726562	448.1572265625	708.5454711914062	-864.90673828125	430.7901306152344	780.8343505859375	-861.3356323242188	497.5937194824219	792.7278442382812	-879.5015258789062	467.6403503417969	1603.14111328125	-481.8032531738281	279.4863891601562	1588.978637695312	-394.5135803222656	305.293701171875	1596.529541015625	-492.095703125	457.2422180175781	1591.024047851562	-337.4581604003906	434.9984436035156	902.9579467773438	-288.0451049804688	532.0640258789062	918.4341430664062	-617.8419799804688	418.95947265625	946.685791015625	-605.5537109375	340.4184875488281	934.0161743164062	-380.2749633789062	244.4216613769531	477.0384216308594	-363.2201843261719	287.1587524414062	604.5294189453125	-338.7125549316406	554.5352783203125	170.5044097900391	-344.0445251464844	394.7857055664062	304.6448364257812	-345.98291015625	419.8906860351562	43.52209854125977	-447.3731689453125	488.4371948242188	79.07331848144531	-468.4925537109375	463.1483764648438	86.10220336914062	-358.4818420410156	596.079345703125	195.3905792236328	-402.3035278320312	489.0572204589844	454.181884765625	-640.2099609375	460.8033752441406	715.1420288085938	-654.7035522460938	490.2936401367188	334.10595703125	-634.045166015625	399.3876953125	39.78321075439453	-635.1468505859375	431.2686462402344	34.64347076416016	-573.7957153320312	512.982421875	30.9482250213623	-661.1716918945312	621.9713134765625	49.78544235229492	-541.5564575195312	596.9515991210938	46.04571914672852	-607.131103515625	nan	nan	nan	nan	nan	nan	
375	3.74	572.8566284179688	966.6163940429688	-493.6760864257812	542.2316284179688	957.5750732421875	-367.7435607910156	560.5106811523438	1022.930297851562	-432.9880981445312	324.0949401855469	1209.78125	-467.5923767089844	562.2646484375	1143.215576171875	-416.7364807128906	510.8614501953125	1388.645263671875	-395.4315795898438	363.3460693359375	1334.422973632812	-443.1366577148438	577.6883544921875	1255.867797851562	-459.6549072265625	498.9539794921875	1345.98876953125	-298.7857055664062	403.9968872070312	1359.199462890625	-263.217529296875	416.8539123535156	1241.898803710938	-194.1112060546875	413.3084106445312	1039.40966796875	-170.3224639892578	481.435546875	1027.68896484375	-219.9280853271484	341.1022338867188	786.9169921875	-206.8582000732422	375.6985473632812	784.6358642578125	-145.9241027832031	405.1558227539062	935.24267578125	-157.0169067382812	351.7479858398438	626.4686279296875	-194.6698303222656	385.5850219726562	715.2501220703125	-144.1078491210938	338.1235656738281	708.6814575195312	-188.9349060058594	499.1556091308594	1390.761596679688	-564.7091674804688	529.8409423828125	1337.842041015625	-630.4588623046875	540.9805908203125	1094.038452148438	-741.5695190429688	544.6714477539062	1057.361572265625	-651.8248901367188	425.68115234375	876.5804443359375	-816.1101684570312	488.6427001953125	877.4618530273438	-860.8606567382812	523.219482421875	1035.0244140625	-778.2842407226562	428.0514831542969	713.7614135742188	-876.5296630859375	411.3122253417969	786.0369262695312	-871.4503784179688	477.8509216308594	797.80615234375	-890.72900390625	459.5337524414062	1603.1611328125	-484.9742126464844	272.7331848144531	1588.666625976562	-394.6514282226562	296.9843444824219	1596.245727539062	-492.6534118652344	451.2858581542969	1590.990600585938	-340.5693359375	430.1729125976562	903.9734497070312	-290.4952392578125	524.0643920898438	917.6180419921875	-621.38330078125	411.0685729980469	945.9010009765625	-608.2896118164062	334.8197937011719	934.6673583984375	-382.1821594238281	232.1315460205078	480.0364074707031	-363.7719421386719	277.1904602050781	607.6381225585938	-339.1430053710938	532.1466064453125	161.1948394775391	-354.0526428222656	377.276123046875	301.4695434570312	-351.3246154785156	387.0140991210938	44.32375335693359	-455.3803405761719	457.4385375976562	75.42105102539062	-477.8052062988281	435.3551330566406	82.97309112548828	-367.2467651367188	573.5823974609375	184.4723510742188	-412.9619445800781	485.5623779296875	453.5954895019531	-640.8380737304688	453.9360656738281	714.0482177734375	-656.41552734375	487.8641052246094	333.531982421875	-634.3768920898438	399.2964477539062	39.70261383056641	-635.1604614257812	431.13818359375	34.48611450195312	-573.696044921875	512.8525390625	31.10517692565918	-661.06103515625	621.9067993164062	50.22782897949219	-541.5703125	596.7180786132812	46.38488006591797	-607.0803833007812	nan	nan	nan	nan	nan	nan	
376	3.75	565.8961791992188	966.32177734375	-497.6771240234375	536.7515258789062	957.6180419921875	-371.4230651855469	554.3557739257812	1022.919311523438	-437.0675048828125	317.364990234375	1209.597534179688	-468.8007507324219	556.114013671875	1143.208740234375	-420.9598388671875	504.4579772949219	1388.545776367188	-399.072509765625	356.3766174316406	1334.295043945312	-444.6985168457031	570.473388671875	1255.88623046875	-464.4374694824219	493.9994812011719	1345.976196289062	-302.3704833984375	399.5511474609375	1359.146728515625	-265.459716796875	414.8734436035156	1242.75927734375	-195.8050079345703	414.6116943359375	1040.700927734375	-169.6030883789062	481.5589904785156	1029.105346679688	-220.8930511474609	343.3587646484375	787.465087890625	-201.4341278076172	380.0426330566406	785.7901000976562	-141.5189514160156	407.9182739257812	936.5393676757812	-154.8495941162109	355.3008117675781	627.2191772460938	-188.4034271240234	390.3537292480469	716.4699096679688	-139.4309387207031	340.7216186523438	709.5740356445312	-182.1140899658203	490.4125671386719	1391.016357421875	-567.9784545898438	519.98193359375	1338.31689453125	-634.3438110351562	526.8114624023438	1095.972045898438	-748.8663330078125	531.658935546875	1058.024169921875	-659.8630981445312	407.8262939453125	880.90576171875	-824.554443359375	470.0646057128906	881.88671875	-870.3811645507812	507.7156372070312	1037.720336914062	-786.110595703125	407.6299438476562	719.1649780273438	-887.7045288085938	391.6730041503906	791.43115234375	-881.1356201171875	458.0039978027344	802.9349975585938	-901.348876953125	451.4411010742188	1603.083862304688	-487.9454345703125	265.9701843261719	1588.273559570312	-394.7248229980469	288.727783203125	1595.887451171875	-493.10400390625	445.2507934570312	1590.854858398438	-343.5203247070312	425.2826232910156	904.820068359375	-292.8742370605469	516.0318603515625	916.7838134765625	-624.7743530273438	403.1705017089844	945.0333251953125	-610.8508911132812	329.1300659179688	935.156982421875	-383.9621887207031	220.5332336425781	482.7442932128906	-364.1633605957031	267.6319274902344	610.4981079101562	-339.4452209472656	508.7446594238281	151.4604034423828	-363.501220703125	359.6152954101562	297.9798583984375	-356.2224426269531	353.5760498046875	44.97105407714844	-461.5687255859375	425.3923034667969	71.47535705566406	-485.732666015625	406.9547424316406	79.71189117431641	-374.6837158203125	549.8431396484375	172.8550262451172	-423.2382507324219	482.2094116210938	453.0458068847656	-641.4135131835938	447.2034606933594	712.9281616210938	-657.9907836914062	485.5408325195312	332.9914245605469	-634.6640625	399.2078857421875	39.62092590332031	-635.1705932617188	431.0122680664062	34.33387756347656	-573.6004028320312	512.7010498046875	31.27633094787598	-660.9530639648438	621.8605346679688	50.69385147094727	-541.6053466796875	596.4896850585938	46.72680282592773	-607.0369262695312	nan	nan	nan	nan	nan	nan	
377	3.76	558.8477172851562	965.9852294921875	-501.4981079101562	531.138427734375	957.5868530273438	-374.9611511230469	548.0625610351562	1022.818359375	-440.9938049316406	310.5650634765625	1209.291015625	-469.9141540527344	549.8571166992188	1143.113891601562	-425.0305480957031	497.96337890625	1388.349975585938	-402.5151672363281	349.3433532714844	1334.048095703125	-446.1691589355469	563.1836547851562	1255.796752929688	-468.9817810058594	488.8815307617188	1345.855590820312	-305.7789916992188	394.9237365722656	1358.959594726562	-267.6014099121094	412.6201171875	1243.466674804688	-197.4969482421875	415.6091003417969	1041.905029296875	-169.1210021972656	481.4090576171875	1030.411865234375	-221.9747619628906	345.6705627441406	787.931640625	-196.35205078125	384.2303466796875	786.9478149414062	-137.4843444824219	410.4273986816406	937.777099609375	-152.9887237548828	359.0269775390625	627.9141845703125	-182.2957763671875	395.0137939453125	717.7164916992188	-135.0417785644531	343.3550720214844	710.4193115234375	-175.4234161376953	481.681884765625	1391.153442382812	-571.0516357421875	510.1760864257812	1338.659912109375	-637.984619140625	512.7315673828125	1097.771850585938	-755.6383056640625	518.5059204101562	1058.595458984375	-667.4028930664062	389.9370727539062	885.3032836914062	-832.5265502929688	451.5316467285156	886.2537231445312	-879.2672119140625	492.3399047851562	1040.299682617188	-793.4036254882812	386.9063415527344	724.7387084960938	-898.376953125	371.896240234375	797.0032958984375	-890.35400390625	438.0839538574219	808.0819091796875	-911.3317260742188	443.3686218261719	1602.910400390625	-490.7198181152344	259.1963806152344	1587.808227539062	-394.7365112304688	280.523193359375	1595.461791992188	-493.4529724121094	439.1409606933594	1590.619140625	-346.2962951660156	420.2902526855469	905.5111694335938	-295.1774291992188	507.97265625	915.9365844726562	-628.0000610351562	395.2785949707031	944.0990600585938	-613.2366333007812	323.3258056640625	935.4964599609375	-385.6261596679688	209.7193756103516	485.1071166992188	-364.4277648925781	258.5304565429688	613.0576782226562	-339.6410827636719	484.3351440429688	141.4162292480469	-372.3562316894531	341.8564147949219	294.2218933105469	-360.6610412597656	319.6900329589844	45.52501678466797	-465.9244995117188	392.3791809082031	67.34264373779297	-492.2300720214844	378.0322875976562	76.37667083740234	-380.7823181152344	524.824951171875	160.6855773925781	-433.0936584472656	478.9776000976562	452.5364685058594	-641.9291381835938	440.5945129394531	711.788818359375	-659.4324951171875	483.3133239746094	332.488037109375	-634.9043579101562	399.1231079101562	39.53945541381836	-635.1768188476562	430.8892822265625	34.1856689453125	-573.5071411132812	512.5303344726562	31.46148681640625	-660.8482666015625	621.8203125	51.17869186401367	-541.6536865234375	596.2662963867188	47.07881546020508	-606.9959716796875	nan	nan	nan	nan	nan	nan	
